<?xml version="1.0" standalone="no"?>
<!DOCTYPE svg PUBLIC "-//W3C//DTD SVG 20010904//EN"
 "http://www.w3.org/TR/2001/REC-SVG-20010904/DTD/svg10.dtd">
<svg version="1.0" xmlns="http://www.w3.org/2000/svg"
 width="512.000000pt" height="512.000000pt" viewBox="0 0 512.000000 512.000000"
 preserveAspectRatio="xMidYMid meet">

<g transform="translate(0.000000,512.000000) scale(0.100000,-0.100000)"
fill="#e4e7da" stroke="none">
<path d="M2388 5104 c-42 -22 -51 -50 -56 -171 l-5 -113 -99 0 -100 0 -34 -34
-34 -34 0 -145 c0 -80 4 -157 10 -171 18 -48 64 -66 168 -66 l92 0 -2 -190 -3
-191 -515 -264 c-347 -177 -522 -272 -535 -290 -18 -24 -20 -45 -23 -228 -4
-221 3 -264 45 -296 36 -29 81 -26 148 9 31 17 59 30 61 30 3 0 3 -41 2 -91
l-3 -91 -680 -355 c-374 -195 -689 -363 -700 -374 -19 -18 -20 -33 -20 -258 0
-267 0 -268 72 -292 30 -10 41 -7 108 25 l75 35 0 -549 0 -550 -130 0 c-147 0
-178 -9 -210 -63 -17 -27 -20 -51 -20 -162 0 -111 3 -135 20 -162 41 -68 -180
-63 2540 -63 2720 0 2499 -5 2540 63 17 27 20 51 20 162 0 111 -3 135 -20 162
-32 54 -63 63 -210 63 l-130 0 0 303 c-1 323 -1 327 -51 346 -30 11 -83 -8
-93 -34 -3 -9 -6 -151 -6 -316 l0 -299 -500 0 -500 0 0 850 0 851 158 -83 c86
-45 310 -162 497 -260 l340 -177 2 -128 c2 -70 5 -138 8 -151 7 -31 60 -53 94
-41 43 17 50 37 51 142 l0 97 72 -36 c65 -33 75 -35 108 -25 74 22 75 26 78
280 2 204 1 229 -16 255 -14 24 -155 101 -702 387 l-685 357 -3 91 c-1 50 -1
91 2 91 2 0 30 -13 61 -30 87 -46 144 -36 177 30 15 30 18 65 18 235 0 170 -3
205 -18 235 -15 31 -42 48 -226 143 -114 59 -221 110 -236 114 -63 12 -106
-80 -57 -124 12 -11 104 -62 205 -113 l182 -93 0 -138 c0 -77 -3 -139 -6 -139
-3 0 -61 29 -128 64 -66 35 -242 125 -391 201 -148 76 -343 175 -431 221 -127
66 -170 84 -203 84 -35 0 -131 -46 -596 -285 -305 -157 -557 -285 -560 -285
-3 0 -5 62 -5 138 l0 138 378 194 c207 106 460 236 561 288 136 71 193 95 221
95 29 0 92 -28 263 -117 124 -64 235 -116 247 -116 55 0 87 47 69 100 -9 26
-33 41 -180 115 l-169 86 0 189 0 190 93 0 c103 0 149 18 167 66 6 14 10 91
10 171 l0 145 -34 34 -34 34 -100 0 -99 0 -5 113 c-7 178 -18 187 -230 187
-107 -1 -150 -5 -170 -16z m244 -246 c3 -74 9 -121 19 -136 24 -38 69 -52 168
-52 l91 0 0 -75 0 -75 -104 0 c-165 0 -175 -17 -176 -287 l0 -161 -70 0 -70 0
0 161 c-1 186 -9 233 -45 265 -23 20 -37 22 -131 22 l-104 0 0 75 0 75 91 0
c99 0 144 14 168 52 10 15 16 62 19 136 l5 112 67 0 67 0 5 -112z m378 -1597
l445 -228 3 -1292 2 -1291 -205 0 -204 0 -3 532 -3 533 -33 61 c-25 46 -72 98
-190 211 -87 83 -172 157 -189 167 -41 21 -105 21 -146 0 -17 -10 -102 -84
-189 -167 -118 -113 -165 -165 -190 -211 l-33 -61 -3 -533 -3 -532 -204 0
-205 0 2 1291 3 1291 445 229 c245 126 447 229 450 229 3 0 205 -103 450 -229z
m-1514 -947 c-8 -6 -125 -68 -261 -138 -135 -70 -250 -136 -255 -146 -27 -51
5 -110 61 -110 29 0 64 17 367 177 l102 54 0 -850 0 -851 -500 0 -500 0 0 589
0 589 128 67 c70 36 136 75 146 85 24 24 25 74 1 100 -33 37 -69 25 -305 -98
l-225 -117 -3 140 c-1 77 1 141 5 143 4 1 287 148 628 327 l620 323 3 -136 c2
-111 0 -139 -12 -148z m2952 -149 l422 -220 0 -141 0 -142 -627 328 -628 327
-3 142 -3 142 209 -108 c114 -59 398 -207 630 -328z m-1935 -1271 c35 -30 59
-30 94 0 l28 24 3 417 3 416 107 -101 c59 -56 117 -120 130 -142 l22 -41 0
-509 0 -508 -130 0 -130 0 -1 68 c-1 121 -37 171 -106 146 -36 -12 -52 -57
-52 -146 l-1 -68 -130 0 -130 0 0 505 c0 423 2 511 15 541 8 20 63 81 127 144
l113 108 5 -415 5 -415 28 -24z m2457 -669 l0 -75 -2410 0 -2410 0 0 75 0 75
2410 0 2410 0 0 -75z"/>
<path d="M2473 3025 c-117 -32 -198 -97 -249 -201 -26 -54 -29 -68 -29 -164 0
-96 3 -110 29 -163 36 -71 108 -140 184 -175 49 -23 70 -27 152 -27 82 0 103
4 152 27 76 35 148 104 184 175 26 53 29 67 29 163 0 96 -3 110 -29 164 -52
107 -147 180 -264 205 -67 14 -94 13 -159 -4z m5 -471 l-3 -107 -45 34 c-131
99 -118 301 25 377 19 10 20 7 23 -94 1 -57 1 -152 0 -210z m221 280 c57 -49
81 -100 81 -171 -1 -90 -33 -148 -112 -198 l-28 -17 0 211 c0 116 4 211 8 211
5 0 27 -16 51 -36z"/>
<path d="M921 1473 c-59 -21 -124 -87 -144 -148 -14 -39 -17 -90 -17 -267 l0
-218 -25 0 c-33 0 -75 -42 -75 -75 0 -14 11 -37 25 -50 l24 -25 301 0 301 0
24 25 c14 13 25 36 25 50 0 33 -42 75 -75 75 l-25 0 0 218 c0 254 -8 290 -75
357 -69 70 -169 91 -264 58z m138 -147 c46 -24 51 -50 51 -276 l0 -210 -100 0
-100 0 0 213 c1 226 5 247 51 273 31 17 64 17 98 0z"/>
<path d="M4021 1473 c-59 -21 -124 -87 -144 -148 -14 -39 -17 -90 -17 -267 l0
-218 -25 0 c-33 0 -75 -42 -75 -75 0 -14 11 -37 25 -50 l24 -25 301 0 301 0
24 25 c14 13 25 36 25 50 0 33 -42 75 -75 75 l-25 0 0 218 c0 254 -8 290 -75
357 -69 70 -169 91 -264 58z m138 -147 c46 -24 51 -50 51 -276 l0 -210 -100 0
-100 0 0 213 c1 226 5 247 51 273 31 17 64 17 98 0z"/>
</g>
</svg>
